#!OML:ASF F:\VICON\USERDATA\INSTALL\Justin_Nancy\Justin_Nancy.ASF
:FULLY-SPECIFIED
:DEGREES
125
root 0.707058 17.704 -15.7433 4.25749 -2.81791 -0.707941
lowerback 4.91141 -0.139331 -0.391891
upperback -0.784378 -0.106201 2.98686
thorax -3.55992 -0.0141015 3.31711
lowerneck -14.899 -4.1376 -11.036
upperneck 20.675 -4.39604 5.91127
head 9.36078 -2.28959 3.32548
rclavicle 3.13086e-015 1.59028e-015
rhumerus -33.7581 -8.38187 -79.0613
rradius 34.1337
rwrist 3.90581
rhand -11.898 13.138
rfingers 7.12502
rthumb 14.1553 -16.3598
lclavicle 3.13086e-015 1.59028e-015
lhumerus -35.3895 12.842 83.4501
lradius 31.2266
lwrist -3.91377
lhand -20.3972 17.869
lfingers 7.12502
lthumb 5.95632 47.7653
rfemur -10.5212 4.73238 19.3595
rtibia 23.2694
rfoot -12.041 -7.40125
rtoes 7.11087
lfemur -11.6554 -3.61036 -17.1742
ltibia 25.0619
lfoot -13.8416 8.52327
ltoes -2.2219
126
root 0.704848 17.7036 -15.7444 4.27488 -2.83065 -0.659397
lowerback 4.87853 -0.127582 -0.438922
upperback -0.743064 -0.0956423 2.96146
thorax -3.49918 -0.0091016 3.31573
lowerneck -15.039 -4.16005 -11.0249
upperneck 20.7477 -4.42192 5.93646
head 9.41475 -2.2969 3.32874
rclavicle -6.80837e-015 1.43125e-014
rhumerus -33.7267 -8.35346 -79.1192
rradius 34.2252
rwrist 3.89445
rhand -11.7752 13.1039
rfingers 7.12502
rthumb 14.2736 -16.3856
lclavicle -6.80837e-015 1.43125e-014
lhumerus -35.216 12.8691 83.4259
lradius 31.1104
lwrist -3.88955
lhand -20.2781 17.6836
lfingers 7.12502
lthumb 6.07128 47.5766
rfemur -10.5913 4.72881 19.3144
rtibia 23.3502
rfoot -12.067 -7.44699
rtoes 6.88271
lfemur -11.6902 -3.57748 -17.2222
ltibia 25.0065
lfoot -13.7468 8.49527
ltoes -2.24599
127
root 0.701083 17.7028 -15.7508 4.31839 -2.73443 -0.513273
lowerback 4.83238 -0.158137 -0.578474
upperback -0.694537 -0.148164 2.91159
thorax -3.41948 -0.0342416 3.3459
lowerneck -15.0744 -4.1728 -11.0043
upperneck 20.6158 -4.44102 5.95698
head 9.37686 -2.29933 3.32786
rclavicle 3.03147e-015 -3.97569e-015
rhumerus -33.6041 -8.40001 -79.1754
rradius 34.2309
rwrist 3.91293
rhand -11.6715 12.9444
rfingers 7.12502
rthumb 14.3735 -16.538
lclavicle 3.03147e-015 -3.97569e-015
lhumerus -35.0093 12.9512 83.3908
lradius 30.9703
lwrist -3.95839
lhand -20.2857 17.3829
lfingers 7.12502
lthumb 6.06396 47.2761
rfemur -10.6988 4.70485 19.1625
rtibia 23.4296
rfoot -12.1056 -7.51463
rtoes 7.08145
lfemur -11.7866 -3.58444 -17.3493
ltibia 24.9698
lfoot -13.6988 8.36626
ltoes -1.5438
128
root 0.698252 17.7005 -15.7512 4.2859 -2.66533 -0.505503
lowerback 4.86934 -0.184645 -0.600468
upperback -0.686521 -0.184402 2.92007
thorax -3.42969 -0.0517491 3.37023
lowerneck -15.0373 -4.16678 -10.9568
upperneck 20.578 -4.43374 5.89771
head 9.35363 -2.29859 3.29993
rclavicle 3.47873e-015 1.11319e-014
rhumerus -33.6003 -8.43014 -79.1793
rradius 34.2244
rwrist 3.93332
rhand -11.7915 12.8879
rfingers 7.12502
rthumb 14.2579 -16.6026
lclavicle 3.47873e-015 1.11319e-014
lhumerus -35.0112 12.9772 83.3854
lradius 30.9487
lwrist -4.00782
lhand -20.2171 17.215
lfingers 7.12502
lthumb 6.13018 47.1063
rfemur -10.6823 4.63661 19.1744
rtibia 23.4631
rfoot -12.1705 -7.55646
rtoes 6.99233
lfemur -11.7755 -3.57577 -17.3272
ltibia 24.9682
lfoot -13.7228 8.24738
ltoes -1.71104
